#!OML:ASF E:\motion texture\Top Level 1\Subject 1\Session 1\male.ASF
:FULLY-SPECIFIED
:DEGREES
222
root 1.75457 18.1382 4.05737 98.7958 -81.1416 -93.7878
lowerback 0.00401771 1.70527 6.90423
upperback -1.70387 2.28928 3.57712
thorax -1.63602 1.02665 -0.205291
lowerneck -19.1275 -2.28665 -5.59109
upperneck 12.0594 -1.6747 0.356162
head 6.85918 -1.04552 0.825116
rclavicle 3.16192e-015 2.66371e-014
rhumerus -14.101 -3.00338 -61.6157
rradius 57.1913
rwrist -12.8995
rhand -2.082 -23.6423
rfingers 7.12502
rthumb 23.5947 -52.2148
lclavicle 3.16192e-015 2.66371e-014
lhumerus -36.127 0.335159 68.9197
lradius 59.4777
lwrist -8.40381
lhand -9.80551 22.7151
lfingers 7.12502
lthumb 16.1709 52.0606
rfemur -5.92677 3.66465 33.4701
rtibia 14.3516
rfoot -8.55142 -11.6595
rtoes 16.3543
lfemur -27.7886 3.82765 -5.76609
ltibia 55.8105
lfoot -7.96958 1.70828
ltoes -18.5397
223
root 1.61735 18.1444 4.05375 98.8766 -81.0386 -93.8241
lowerback -0.109167 1.84001 7.13925
upperback -1.80186 2.46533 3.44247
thorax -1.64952 1.10826 -0.472491
lowerneck -19.0651 -2.29016 -5.64808
upperneck 12.3538 -1.6213 0.0750105
head 6.94284 -1.05488 0.74802
rclavicle -1.72321e-014 -5.28767e-014
rhumerus -13.0781 -2.75472 -60.795
rradius 58.7976
rwrist -13.4794
rhand -1.422 -22.961
rfingers 7.12502
rthumb 24.2277 -51.4505
lclavicle -1.72321e-014 -5.28767e-014
lhumerus -36.1825 -0.509621 69.6326
lradius 61.3411
lwrist -8.57659
lhand -9.36926 21.9168
lfingers 7.12502
lthumb 16.591 51.2276
rfemur -5.14768 3.80929 33.6449
rtibia 13.7599
rfoot -8.67772 -11.7915
rtoes 16.095
lfemur -28.4131 3.77967 -5.66493
ltibia 54.4517
lfoot -8.30778 2.14285
ltoes -18.61
224
root 1.48085 18.1477 4.05141 98.9139 -80.9279 -93.7994
lowerback -0.225646 1.96913 7.38594
upperback -1.89924 2.63281 3.31255
thorax -1.65879 1.18513 -0.740411
lowerneck -19.0035 -2.28663 -5.69888
upperneck 12.6354 -1.55872 -0.209812
head 7.02243 -1.06047 0.669601
rclavicle -3.04389e-016 1.0138e-014
rhumerus -11.9962 -2.66428 -59.9218
rradius 60.2612
rwrist -14.0502
rhand -1.00449 -22.4507
rfingers 7.12502
rthumb 24.6279 -50.8862
lclavicle -3.04389e-016 1.0138e-014
lhumerus -36.2792 -1.26941 70.3406
lradius 63.2348
lwrist -8.84262
lhand -8.95655 21.1797
lfingers 7.12502
lthumb 16.9883 50.4568
rfemur -4.43274 3.94219 33.8245
rtibia 13.2487
rfoot -8.83345 -11.9166
rtoes 15.8232
lfemur -29.0069 3.70947 -5.55174
ltibia 52.9806
lfoot -8.60513 2.61858
ltoes -18.6389
225
root 1.34541 18.1483 4.05031 98.9153 -80.8114 -93.7199
lowerback -0.338911 2.09022 7.64467
upperback -2.00058 2.78953 3.18389
thorax -1.67234 1.25584 -1.01321
lowerneck -18.9424 -2.27083 -5.73623
upperneck 12.9034 -1.48234 -0.494876
head 7.09755 -1.05928 0.59039
rclavicle -2.54817e-014 3.37934e-014
rhumerus -10.8625 -2.72175 -59.0177
rradius 61.5685
rwrist -14.64
rhand -0.827877 -22.1044
rfingers 7.12502
rthumb 24.7972 -50.5167
lclavicle -2.54817e-014 3.37934e-014
lhumerus -36.4297 -1.94015 71.0395
lradius 65.1658
lwrist -9.16981
lhand -8.57925 20.4583
lfingers 7.12502
lthumb 17.3514 49.7038
rfemur -3.79099 4.06133 34.0056
rtibia 12.8286
rfoot -9.02801 -12.0318
rtoes 15.5029
lfemur -29.5713 3.61589 -5.42883
ltibia 51.3994
lfoot -8.86111 3.13368
ltoes -18.6405
226
root 1.21095 18.1461 4.05037 98.9222 -80.6927 -93.6258
lowerback -0.450375 2.20542 7.91026
upperback -2.10785 2.93833 3.054
thorax -1.69149 1.32176 -1.29066
lowerneck -18.8763 -2.24229 -5.75487
upperneck 13.1568 -1.39349 -0.779541
head 7.16696 -1.05147 0.509686
rclavicle -4.31114e-015 2.20651e-014
rhumerus -9.6799 -2.92707 -58.1032
rradius 62.7014
rwrist -15.2623
rhand -0.884007 -21.9322
rfingers 7.12502
rthumb 24.7434 -50.3519
lclavicle -4.31114e-015 2.20651e-014
lhumerus -36.6264 -2.5193 71.7322
lradius 67.1121
lwrist -9.51016
lhand -8.25366 19.7578
lfingers 7.12502
lthumb 17.6648 48.9754
rfemur -3.22597 4.16936 34.1838
rtibia 12.5053
rfoot -9.25972 -12.1321
rtoes 15.1622
lfemur -30.1007 3.5035 -5.29952
ltibia 49.702
lfoot -9.05934 3.69155
ltoes -18.6112
227
root 1.07706 18.1411 4.05139 98.9609 -80.5741 -93.5465
lowerback -0.568504 2.31725 8.17332
upperback -2.21373 3.08118 2.92509
thorax -1.70437 1.38462 -1.56492
lowerneck -18.814 -2.20318 -5.75583
upperneck 13.3972 -1.29404 -1.06461
head 7.23272 -1.03801 0.427106
rclavicle -4.46893e-014 -4.07509e-015
rhumerus -8.44082 -3.28644 -57.192
rradius 63.6457
rwrist -15.9255
rhand -1.09756 -21.9064
rfingers 7.12502
rthumb 24.5387 -50.354
lclavicle -4.46893e-014 -4.07509e-015
lhumerus -36.8523 -3.01107 72.4308
lradius 69.0636
lwrist -9.82424
lhand -7.956 19.1201
lfingers 7.12502
lthumb 17.9512 48.3117
rfemur -2.7312 4.27077 34.3581
rtibia 12.2749
rfoot -9.52267 -12.222
rtoes 14.7867
lfemur -30.588 3.37338 -5.16473
ltibia 47.889
lfoot -9.18622 4.28815
ltoes -18.5475
228
root 0.943432 18.1336 4.05329 99.0657 -80.4588 -93.5185
lowerback -0.697492 2.42745 8.42841
upperback -2.31579 3.21973 2.79605
thorax -1.70629 1.44562 -1.8339
lowerneck -18.7539 -2.15606 -5.73772
upperneck 13.6242 -1.18803 -1.34954
head 7.29458 -1.02059 0.342173
rclavicle 2.16792e-014 -3.70733e-014
rhumerus -7.14516 -3.79049 -56.3022
rradius 64.3825
rwrist -16.6178
rhand -1.44799 -22.0016
rfingers 7.12502
rthumb 24.2027 -50.4944
lclavicle 2.16792e-014 -3.70733e-014
lhumerus -37.086 -3.40631 73.139
lradius 70.9916
lwrist -10.0783
lhand -7.65765 18.5568
lfingers 7.12502
lthumb 18.2382 47.7217
rfemur -2.29974 4.36558 34.5237
rtibia 12.1308
rfoot -9.81871 -12.2992
rtoes 14.3692
lfemur -31.0251 3.23063 -5.0285
ltibia 45.9576
lfoot -9.22913 4.92296
ltoes -18.4639
229
root 0.811306 18.1237 4.0568 99.2536 -80.3512 -93.5522
lowerback -0.818947 2.53927 8.6798
upperback -2.42237 3.361 2.66359
thorax -1.71531 1.50736 -2.1043
lowerneck -18.7392 -2.10902 -5.78148
upperneck 13.8908 -1.07525 -1.54756
head 7.37825 -0.996315 0.295877
rclavicle -5.33011e-015 -6.29402e-014
rhumerus -5.80239 -4.42983 -55.441
rradius 64.9065
rwrist -17.3237
rhand -1.90543 -22.2116
rfingers 7.12502
rthumb 23.7641 -50.7622
lclavicle -5.33011e-015 -6.29402e-014
lhumerus -37.3362 -3.73837 73.8679
lradius 72.8988
lwrist -10.2464
lhand -7.31702 18.0941
lfingers 7.12502
lthumb 18.5659 47.2281
rfemur -1.93544 4.44172 34.6696
rtibia 12.0578
rfoot -10.13 -12.3533
rtoes 13.911
lfemur -31.4228 3.07273 -4.89992
ltibia 43.9077
lfoot -9.16887 5.58258
ltoes -18.3279
230
root 0.679771 18.1114 4.0616 99.549 -80.2515 -93.6796
lowerback -0.938638 2.65321 8.92513
upperback -2.5273 3.50467 2.52695
thorax -1.72183 1.57024 -2.37525
lowerneck -18.7734 -2.06667 -5.86267
upperneck 14.1939 -0.964003 -1.68297
head 7.48308 -0.970301 0.275429
rclavicle -2.60683e-014 -8.26199e-015
rhumerus -4.41 -5.1856 -54.6238
rradius 65.2086
rwrist -18.0122
rhand -2.42911 -22.5142
rfingers 7.12502
rthumb 23.2618 -51.1291
lclavicle -2.60683e-014 -8.26199e-015
lhumerus -37.5847 -3.99634 74.6169
lradius 74.7609
lwrist -10.3389
lhand -6.95258 17.7221
lfingers 7.12502
lthumb 18.9164 46.8223
rfemur -1.61696 4.50155 34.7963
rtibia 12.0375
rfoot -10.4465 -12.3864
rtoes 13.3945
lfemur -31.7658 2.902 -4.77525
ltibia 41.7365
lfoot -8.9961 6.2527
ltoes -18.132
231
root 0.547308 18.0971 4.06653 99.8904 -80.153 -93.8538
lowerback -1.06508 2.7647 9.15744
upperback -2.62824 3.6435 2.38984
thorax -1.72002 1.63116 -2.63873
lowerneck -18.7748 -2.01698 -5.91114
upperneck 14.471 -0.853025 -1.82338
head 7.57386 -0.942823 0.248463
rclavicle 1.98315e-014 1.33186e-014
rhumerus -2.9891 -6.0403 -53.8757
rradius 65.3098
rwrist -18.6488
rhand -3.01568 -22.888
rfingers 7.12502
rthumb 22.6989 -51.5729
lclavicle 1.98315e-014 1.33186e-014
lhumerus -37.8104 -4.1596 75.3822
lradius 76.5291
lwrist -10.3765
lhand -6.57094 17.3012
lfingers 7.12502
lthumb 19.2834 46.3652
rfemur -1.31157 4.5527 34.9192
rtibia 12.0491
rfoot -10.7684 -12.4206
rtoes 12.8232
lfemur -32.0292 2.71754 -4.63863
ltibia 39.4321
lfoot -8.70402 6.90472
ltoes -17.9434
232
root 0.413431 18.0805 4.07138 100.248 -80.0522 -94.0485
lowerback -1.2005 2.87016 9.37551
upperback -2.721 3.77215 2.25671
thorax -1.70535 1.68787 -2.88929
lowerneck -18.7539 -1.96004 -5.92127
upperneck 14.7256 -0.741591 -1.97804
head 7.65334 -0.914103 0.210958
rclavicle 3.4264e-014 4.19436e-014
rhumerus -1.54067 -6.96751 -53.2081
rradius 65.2254
rwrist -19.2121
rhand -3.67197 -23.3396
rfingers 7.12502
rthumb 22.0689 -52.1003
lclavicle 3.4264e-014 4.19436e-014
lhumerus -38.0159 -4.22789 76.1687
lradius 78.2159
lwrist -10.3807
lhand -6.20698 16.9241
lfingers 7.12502
lthumb 19.6334 45.9527
rfemur -1.00421 4.59292 35.0429
rtibia 12.0759
rfoot -11.0925 -12.4567
rtoes 12.2118
lfemur -32.2072 2.51196 -4.48244
ltibia 36.9928
lfoot -8.30741 7.51782
ltoes -17.7372
233
root 0.277363 18.0621 4.07559 100.553 -79.9442 -94.2007
lowerback -1.35762 2.96662 9.57639
upperback -2.80115 3.88479 2.13018
thorax -1.66739 1.73822 -3.12189
lowerneck -18.6778 -1.89271 -5.84807
upperneck 14.9273 -0.633515 -2.18942
head 7.70552 -0.886437 0.141498
rclavicle 7.58255e-015 3.62782e-014
rhumerus -0.0784962 -7.95615 -52.6364
rradius 64.9812
rwrist -19.6862
rhand -4.39301 -23.8802
rfingers 7.12502
rthumb 21.3765 -52.721
lclavicle 7.58255e-015 3.62782e-014
lhumerus -38.1939 -4.20082 76.9767
lradius 79.8121
lwrist -10.3605
lhand -5.87468 16.5904
lfingers 7.12502
lthumb 19.9528 45.586
rfemur -0.678591 4.62871 35.179
rtibia 12.1034
rfoot -11.419 -12.5097
rtoes 11.5675
lfemur -32.2944 2.27288 -4.29433
ltibia 34.4259
lfoot -7.83398 8.04827
ltoes -17.4605
234
root 0.140036 18.0418 4.08015 100.828 -79.8296 -94.3232
lowerback -1.52544 3.05178 9.77285
upperback -2.8822 3.98044 2.00642
thorax -1.62592 1.78021 -3.34855
lowerneck -18.5831 -1.81644 -5.75505
upperneck 15.1325 -0.52211 -2.385
head 7.75582 -0.854532 0.074553
rclavicle 2.25287e-014 -3.04141e-014
rhumerus 1.38081 -8.97003 -52.1725
rradius 64.5987
rwrist -20.0738
rhand -5.19997 -24.5308
rfingers 7.12502
rthumb 20.6013 -53.4576
lclavicle 2.25287e-014 -3.04141e-014
lhumerus -38.3575 -4.07118 77.8003
lradius 81.3133
lwrist -10.3073
lhand -5.57346 16.2567
lfingers 7.12502
lthumb 20.2423 45.2219
rfemur -0.347483 4.65069 35.3193
rtibia 12.131
rfoot -11.7485 -12.5607
rtoes 10.902
lfemur -32.3098 1.98352 -4.07617
ltibia 31.7491
lfoot -7.30714 8.48913
ltoes -17.1363
235
root 0.000325964 18.0198 4.08434 101.038 -79.7052 -94.3864
lowerback -1.71952 3.12912 9.95801
upperback -2.95152 4.06097 1.88908
thorax -1.55971 1.81636 -3.5605
lowerneck -18.4563 -1.73417 -5.60672
upperneck 15.3109 -0.414865 -2.6088
head 7.79168 -0.823267 -0.0108723
rclavicle -2.04593e-014 -4.81059e-014
rhumerus 2.81832 -10.0049 -51.8079
rradius 64.1096
rwrist -20.3978
rhand -6.087 -25.288
rfingers 7.12502
rthumb 19.7487 -54.3048
lclavicle -2.04593e-014 -4.81059e-014
lhumerus -38.5086 -3.87154 78.6439
lradius 82.7412
lwrist -10.2056
lhand -5.30257 15.977
lfingers 7.12502
lthumb 20.5027 44.9144
rfemur 0.000909097 4.6679 35.4735
rtibia 12.1585
rfoot -12.0847 -12.6177
rtoes 10.2131
lfemur -32.2465 1.62977 -3.81455
ltibia 28.9765
lfoot -6.75864 8.83005
ltoes -16.7786
236
root -0.141565 17.9963 4.0887 101.212 -79.5759 -94.4184
lowerback -1.93473 3.19783 10.1338
upperback -3.00946 4.12592 1.77689
thorax -1.47213 1.84636 -3.76043
lowerneck -18.3288 -1.64849 -5.43027
upperneck 15.4891 -0.308658 -2.83806
head 7.82756 -0.791326 -0.102896
rclavicle -2.32465e-014 6.55989e-015
rhumerus 4.22844 -11.0406 -51.5409
rradius 63.5295
rwrist -20.6857
rhand -7.04807 -26.117
rfingers 7.12502
rthumb 18.8246 -55.2261
lclavicle -2.32465e-014 6.55989e-015
lhumerus -38.6427 -3.59154 79.5052
lradius 84.0853
lwrist -10.0371
lhand -5.05387 15.7178
lfingers 7.12502
lthumb 20.7417 44.6293
rfemur 0.361488 4.67836 35.6306
rtibia 12.1913
rfoot -12.4316 -12.6685
rtoes 9.50894
lfemur -32.1131 1.19727 -3.51248
ltibia 26.1347
lfoot -6.1988 9.07563
ltoes -16.4958
